{
  "accessors": [
    {
      "bufferView": 2,
      "componentType": 5126,
      "count": 22625,
      "max": [
        198.70680236816406,
        15.311440467834473,
        131.26499938964844
      ],
      "min": [
        -193.02890014648438,
        -185.7459716796875,
        18.654413223266602
      ],
      "type": "VEC3"
    },
    {
      "bufferView": 2,
      "byteOffset": 271500,
      "componentType": 5126,
      "count": 22625,
      "max": [
        1,
        1,
        1
      ],
      "min": [
        -1,
        -1,
        -1
      ],
      "type": "VEC3"
    },
    {
      "bufferView": 3,
      "componentType": 5126,
      "count": 22625,
      "max": [
        1,
        1,
        1,
        1
      ],
      "min": [
        -1,
        -1,
        -1,
        -1
      ],
      "type": "VEC4"
    },
    {
      "bufferView": 1,
      "componentType": 5126,
      "count": 22625,
      "max": [
        0.99409997463226318,
        0.99229997396469116
      ],
      "min": [
        0.0068000000901520252,
        0.0043999999761581421
      ],
      "type": "VEC2"
    },
    {
      "bufferView": 0,
      "componentType": 5125,
      "count": 61365,
      "max": [
        22624
      ],
      "min": [
        0
      ],
      "type": "SCALAR"
    },
    {
      "bufferView": 2,
      "byteOffset": 543000,
      "componentType": 5126,
      "count": 9464,
      "max": [
        193.90499877929688,
        -21.932567596435547,
        144.0321044921875
      ],
      "min": [
        -206.67160034179688,
        -148.50196838378906,
        20.176300048828125
      ],
      "type": "VEC3"
    },
    {
      "bufferView": 2,
      "byteOffset": 656568,
      "componentType": 5126,
      "count": 9464,
      "max": [
        1,
        1,
        0.99999856948852539
      ],
      "min": [
        -1,
        -1,
        -1
      ],
      "type": "VEC3"
    },
    {
      "bufferView": 3,
      "byteOffset": 362000,
      "componentType": 5126,
      "count": 9464,
      "max": [
        1,
        1,
        1,
        1
      ],
      "min": [
        -1,
        -1,
        -1,
        -1
      ],
      "type": "VEC4"
    },
    {
      "bufferView": 1,
      "byteOffset": 181000,
      "componentType": 5126,
      "count": 9464,
      "max": [
        0.9976000189781189,
        0.99919998645782471
      ],
      "min": [
        0.013700000010430813,
        0.0063000000081956387
      ],
      "type": "VEC2"
    },
    {
      "bufferView": 0,
      "byteOffset": 245460,
      "componentType": 5125,
      "count": 30369,
      "max": [
        9463
      ],
      "min": [
        0
      ],
      "type": "SCALAR"
    },
    {
      "bufferView": 2,
      "byteOffset": 770136,
      "componentType": 5126,
      "count": 420,
      "max": [
        193.90499877929688,
        -39.70526123046875,
        83.70880126953125
      ],
      "min": [
        -200.54550170898438,
        -130.72926330566406,
        31.565793991088867
      ],
      "type": "VEC3"
    },
    {
      "bufferView": 2,
      "byteOffset": 775176,
      "componentType": 5126,
      "count": 420,
      "max": [
        0.99332749843597412,
        0.93802708387374878,
        0.99634641408920288
      ],
      "min": [
        -0.99983257055282593,
        -0.93802708387374878,
        -0.98076492547988892
      ],
      "type": "VEC3"
    },
    {
      "bufferView": 3,
      "byteOffset": 513424,
      "componentType": 5126,
      "count": 420,
      "max": [
        0.94647568464279175,
        0.99125993251800537,
        0.93918412923812866,
        1
      ],
      "min": [
        -0.94652122259140015,
        -1,
        -0.99979299306869507,
        -1
      ],
      "type": "VEC4"
    },
    {
      "bufferView": 1,
      "byteOffset": 256712,
      "componentType": 5126,
      "count": 420,
      "max": [
        0.9901999831199646,
        0.99299997091293335
      ],
      "min": [
        0.0076999999582767487,
        0.0093000000342726707
      ],
      "type": "VEC2"
    },
    {
      "bufferView": 0,
      "byteOffset": 366936,
      "componentType": 5125,
      "count": 978,
      "max": [
        419
      ],
      "min": [
        0
      ],
      "type": "SCALAR"
    },
    {
      "bufferView": 2,
      "byteOffset": 780216,
      "componentType": 5126,
      "count": 519,
      "max": [
        181.51469421386719,
        -29.075462341308594,
        130.30299377441406
      ],
      "min": [
        -189.23770141601562,
        -135.03706359863281,
        30.571502685546875
      ],
      "type": "VEC3"
    },
    {
      "bufferView": 2,
      "byteOffset": 786444,
      "componentType": 5126,
      "count": 519,
      "max": [
        0.945107102394104,
        0.99722391366958618,
        0.99947160482406616
      ],
      "min": [
        -0.99041229486465454,
        -0.99722391366958618,
        -0.9946904182434082
      ],
      "type": "VEC3"
    },
    {
      "bufferView": 3,
      "byteOffset": 520144,
      "componentType": 5126,
      "count": 519,
      "max": [
        0.99466723203659058,
        0.9999992847442627,
        0.8784949779510498,
        1
      ],
      "min": [
        -0.99946802854537964,
        -0.74392640590667725,
        -0.99815332889556885,
        -1
      ],
      "type": "VEC4"
    },
    {
      "bufferView": 1,
      "byteOffset": 260072,
      "componentType": 5126,
      "count": 519,
      "max": [
        0.8223000168800354,
        0.98570001125335693
      ],
      "min": [
        0.036699999123811722,
        0.00050000002374872565
      ],
      "type": "VEC2"
    },
    {
      "bufferView": 0,
      "byteOffset": 370848,
      "componentType": 5125,
      "count": 1620,
      "max": [
        518
      ],
      "min": [
        0
      ],
      "type": "SCALAR"
    },
    {
      "bufferView": 2,
      "byteOffset": 792672,
      "componentType": 5126,
      "count": 11115,
      "max": [
        168.81159973144531,
        26.312042236328125,
        83.178512573242188
      ],
      "min": [
        -147.17280578613281,
        -196.74655151367188,
        -2.672015905380249
      ],
      "type": "VEC3"
    },
    {
      "bufferView": 2,
      "byteOffset": 926052,
      "componentType": 5126,
      "count": 11115,
      "max": [
        0.99100828170776367,
        1,
        0.99104797840118408
      ],
      "min": [
        -0.99100828170776367,
        -1,
        -0.99107617139816284
      ],
      "type": "VEC3"
    },
    {
      "bufferView": 3,
      "byteOffset": 528448,
      "componentType": 5126,
      "count": 11115,
      "max": [
        1,
        1,
        1,
        1
      ],
      "min": [
        -1,
        -1,
        -1,
        -1
      ],
      "type": "VEC4"
    },
    {
      "bufferView": 1,
      "byteOffset": 264224,
      "componentType": 5126,
      "count": 11115,
      "max": [
        0.97020000219345093,
        0.98909997940063477
      ],
      "min": [
        0.021500000730156898,
        0.0087999999523162842
      ],
      "type": "VEC2"
    },
    {
      "bufferView": 0,
      "byteOffset": 377328,
      "componentType": 5125,
      "count": 28416,
      "max": [
        11114
      ],
      "min": [
        0
      ],
      "type": "SCALAR"
    }
  ],
  "asset": {
    "extras": {
      "author": "CryptoGames (https://sketchfab.com/Crypto_Games)",
      "license": "CC-BY-4.0 (http://creativecommons.org/licenses/by/4.0/)",
      "source": "https://sketchfab.com/models/cecf70dd69e5467aa8ecb60da6610257",
      "title": "PUBG:BUGGY"
    },
    "generator": "Sketchfab-3.22.5",
    "version": "2.0"
  },
  "bufferViews": [
    {
      "buffer": 0,
      "byteLength": 490992,
      "byteOffset": 0,
      "name": "floatBufferViews",
      "target": 34963
    },
    {
      "buffer": 0,
      "byteLength": 353144,
      "byteOffset": 490992,
      "byteStride": 8,
      "name": "floatBufferViews",
      "target": 34962
    },
    {
      "buffer": 0,
      "byteLength": 1059432,
      "byteOffset": 844136,
      "byteStride": 12,
      "name": "floatBufferViews",
      "target": 34962
    },
    {
      "buffer": 0,
      "byteLength": 706288,
      "byteOffset": 1903568,
      "byteStride": 16,
      "name": "floatBufferViews",
      "target": 34962
    }
  ],
  "buffers": [
    {
      "byteLength": 2609856,
      "uri": "scene.bin"
    }
  ],
  "images": [
    {
      "uri": "textures/material_3_normal.png"
    },
    {
      "uri": "textures/material_3_baseColor.png"
    },
    {
      "uri": "textures/material_4_normal.png"
    },
    {
      "uri": "textures/material_4_baseColor.png"
    },
    {
      "uri": "textures/material_1_normal.png"
    },
    {
      "uri": "textures/material_1_baseColor.png"
    },
    {
      "uri": "textures/material_2_emissive.png"
    },
    {
      "uri": "textures/material_2_metallicRoughness.png"
    },
    {
      "uri": "textures/material_2_baseColor.png"
    },
    {
      "uri": "textures/material_0_normal.png"
    },
    {
      "uri": "textures/material_0_baseColor.png"
    }
  ],
  "materials": [
    {
      "doubleSided": true,
      "emissiveFactor": [
        0,
        0,
        0
      ],
      "name": "material_0",
      "normalTexture": {
        "index": 9,
        "scale": 1,
        "texCoord": 0
      },
      "pbrMetallicRoughness": {
        "baseColorFactor": [
          1,
          1,
          1,
          1
        ],
        "baseColorTexture": {
          "index": 10,
          "texCoord": 0
        },
        "metallicFactor": 0,
        "roughnessFactor": 1
      }
    },
    {
      "doubleSided": true,
      "emissiveFactor": [
        0,
        0,
        0
      ],
      "name": "material_1",
      "normalTexture": {
        "index": 4,
        "scale": 1,
        "texCoord": 0
      },
      "pbrMetallicRoughness": {
        "baseColorFactor": [
          1,
          1,
          1,
          1
        ],
        "baseColorTexture": {
          "index": 5,
          "texCoord": 0
        },
        "metallicFactor": 0,
        "roughnessFactor": 1
      }
    },
    {
      "doubleSided": true,
      "emissiveFactor": [
        1,
        1,
        1
      ],
      "emissiveTexture": {
        "index": 6,
        "texCoord": 0
      },
      "name": "material_2",
      "occlusionTexture": {
        "index": 7,
        "strength": 1,
        "texCoord": 0
      },
      "pbrMetallicRoughness": {
        "baseColorFactor": [
          1,
          1,
          1,
          1
        ],
        "baseColorTexture": {
          "index": 8,
          "texCoord": 0
        },
        "metallicFactor": 0,
        "roughnessFactor": 1
      }
    },
    {
      "doubleSided": true,
      "emissiveFactor": [
        0,
        0,
        0
      ],
      "name": "material_3",
      "normalTexture": {
        "index": 0,
        "scale": 1,
        "texCoord": 0
      },
      "pbrMetallicRoughness": {
        "baseColorFactor": [
          1,
          1,
          1,
          1
        ],
        "baseColorTexture": {
          "index": 1,
          "texCoord": 0
        },
        "metallicFactor": 0,
        "roughnessFactor": 1
      }
    },
    {
      "doubleSided": true,
      "emissiveFactor": [
        0,
        0,
        0
      ],
      "name": "material_4",
      "normalTexture": {
        "index": 2,
        "scale": 1,
        "texCoord": 0
      },
      "pbrMetallicRoughness": {
        "baseColorFactor": [
          1,
          1,
          1,
          1
        ],
        "baseColorTexture": {
          "index": 3,
          "texCoord": 0
        },
        "metallicFactor": 0,
        "roughnessFactor": 1
      }
    }
  ],
  "meshes": [
    {
      "primitives": [
        {
          "attributes": {
            "NORMAL": 1,
            "POSITION": 0,
            "TANGENT": 2,
            "TEXCOORD_0": 3
          },
          "indices": 4,
          "material": 0,
          "mode": 4
        }
      ]
    },
    {
      "primitives": [
        {
          "attributes": {
            "NORMAL": 6,
            "POSITION": 5,
            "TANGENT": 7,
            "TEXCOORD_0": 8
          },
          "indices": 9,
          "material": 1,
          "mode": 4
        }
      ]
    },
    {
      "primitives": [
        {
          "attributes": {
            "NORMAL": 11,
            "POSITION": 10,
            "TANGENT": 12,
            "TEXCOORD_0": 13
          },
          "indices": 14,
          "material": 2,
          "mode": 4
        }
      ]
    },
    {
      "primitives": [
        {
          "attributes": {
            "NORMAL": 16,
            "POSITION": 15,
            "TANGENT": 17,
            "TEXCOORD_0": 18
          },
          "indices": 19,
          "material": 3,
          "mode": 4
        }
      ]
    },
    {
      "primitives": [
        {
          "attributes": {
            "NORMAL": 21,
            "POSITION": 20,
            "TANGENT": 22,
            "TEXCOORD_0": 23
          },
          "indices": 24,
          "material": 4,
          "mode": 4
        }
      ]
    }
  ],
  "nodes": [
    {
      "children": [
        1
      ],
      "name": "RootNode (gltf orientation matrix)",
      "rotation": [
        -0.70710678118654746,
        -0,
        -0,
        0.70710678118654757
      ]
    },
    {
      "children": [
        2
      ],
      "name": "RootNode (model correction matrix)"
    },
    {
      "children": [
        3,
        4,
        5,
        6,
        7
      ],
      "name": "buggycorregido.obj.cleaner.materialmerger.gles"
    },
    {
      "mesh": 0,
      "name": ""
    },
    {
      "mesh": 1,
      "name": ""
    },
    {
      "mesh": 2,
      "name": ""
    },
    {
      "mesh": 3,
      "name": ""
    },
    {
      "mesh": 4,
      "name": ""
    }
  ],
  "samplers": [
    {
      "magFilter": 9729,
      "minFilter": 9987,
      "wrapS": 10497,
      "wrapT": 10497
    }
  ],
  "scene": 0,
  "scenes": [
    {
      "name": "OSG_Scene",
      "nodes": [
        0
      ]
    }
  ],
  "textures": [
    {
      "sampler": 0,
      "source": 0
    },
    {
      "sampler": 0,
      "source": 1
    },
    {
      "sampler": 0,
      "source": 2
    },
    {
      "sampler": 0,
      "source": 3
    },
    {
      "sampler": 0,
      "source": 4
    },
    {
      "sampler": 0,
      "source": 5
    },
    {
      "sampler": 0,
      "source": 6
    },
    {
      "sampler": 0,
      "source": 7
    },
    {
      "sampler": 0,
      "source": 8
    },
    {
      "sampler": 0,
      "source": 9
    },
    {
      "sampler": 0,
      "source": 10
    }
  ]
}

