<svg xmlns="http://www.w3.org/2000/svg" viewBox="0 0 128 128"><defs><style>.cls-1{fill:#efc600;}.cls-2{fill:#224a95;}.cls-3{fill:#3e4346;}</style></defs><title>logo</title><g id="Layer_2" data-name="Layer 2"><g id="Layer_1-2" data-name="Layer 1"><path class="cls-1" d="M3,5.5V34.23a5.51,5.51,0,0,0,3.51,5.13L63,61.23a5.47,5.47,0,0,0,4,0l56.5-21.87A5.51,5.51,0,0,0,127,34.23V5.5A5.5,5.5,0,0,0,121.5,0H8.5A5.5,5.5,0,0,0,3,5.5Z"/><path class="cls-2" d="M76.48,37.05C71.74,50,53.62,53.49,57,36.69l4-19h8.28C67.3,27.81,65.92,34,64.54,41.07s7.56,1.86,9.6-4ZM62.86,13A4.67,4.67,0,0,1,61.6,9.63,5,5,0,0,1,63,6.27,4.76,4.76,0,0,1,66.4,4.89a4.39,4.39,0,0,1,3.3,1.38,4.54,4.54,0,0,1,1.44,3.36A4.41,4.41,0,0,1,69.64,13a4.8,4.8,0,0,1-3.42,1.32A4.57,4.57,0,0,1,62.86,13Z"/><path class="cls-2" d="M62,69.77V122.5a5.5,5.5,0,0,1-5.5,5.5H5.5A5.5,5.5,0,0,1,0,122.5V50A5.5,5.5,0,0,1,7.49,44.9l51,19.74A5.51,5.51,0,0,1,62,69.77Z"/><path class="cls-1" d="M7.3,85.49c-1-8,.48-13.62,3.78-17.22,5-5.58,14.46-6.72,24.78-6.72L27,106.61c6.48.66,19.44,5,26.7,9.78l-11,5.28c-5.52-6.36-17.16-12.9-24.66-13L26.32,67c-4.26.42-8.58,1-11.16,3.24-2.16,2-2,6.78.6,11.28Z"/><path class="cls-3" d="M71.71,128h50.58a5.71,5.71,0,0,0,5.71-5.71v-72A5.71,5.71,0,0,0,120.23,45L69.65,64.59A5.7,5.7,0,0,0,66,69.91v52.38A5.71,5.71,0,0,0,71.71,128Z"/><path class="cls-1" d="M123.44,66.61l-9.06,45.06-8.34-.06L112.28,84l-15.72,27.6h-7.5L92,84.13,79.34,111.61h-5.7l18.48-40c-3.84.6-7.62,1.32-9.6,3.72-1.56,1.8-1.14,6.6,1,10.32l-8.16,3.72c-.78-7.8.84-13.68,4.32-17,2.82-2.7,6.6-4.2,11-5.1a57.87,57.87,0,0,1,11.88-.78L98.84,96l16.92-29.34Z"/></g></g></svg>