<svg id="Layer_1" data-name="Layer 1" xmlns="http://www.w3.org/2000/svg" viewBox="0 0 610 610"><defs><style>.cls-1{fill:#efc600;}.cls-2{fill:#224a95;}.cls-3{fill:#3e4346;}.cls-4{fill:none;}</style></defs><title>Logo</title><rect class="cls-1" x="446.86" y="511.46" width="27.06" height="2.76" transform="matrix(1, -0.04, 0.04, 1, -21.56, 20.21)"/><line class="cls-1" x1="145.85" y1="540.21" x2="516.85" y2="526.21"/><rect class="cls-1" x="145.71" y="532.21" width="371.26" height="2" transform="translate(-20.07 13.01) rotate(-2.18)"/><line class="cls-1" x1="145.85" y1="540.21" x2="516.85" y2="526.21"/><rect class="cls-1" x="145.71" y="532.21" width="371.26" height="2" transform="translate(-20.07 13.01) rotate(-2.18)"/><rect class="cls-1" x="185.86" y="522.79" width="27.06" height="2.76" transform="translate(-22.29 9.03) rotate(-2.46)"/><rect class="cls-1" x="275.86" y="519.12" width="27.06" height="2.76" transform="translate(-22.05 12.88) rotate(-2.46)"/><rect class="cls-1" x="365.86" y="515.46" width="27.06" height="2.76" transform="matrix(1, -0.04, 0.04, 1, -21.81, 16.74)"/><path class="cls-1" d="M81.06,497.65c-7.13,19.5-34.41,24.74-29.35-.55l6-28.63H70.14c-2.9,15.27-5,24.57-7,35.23-2.08,10.84,11.38,2.8,14.45-6.05Zm-20.5-36.22a7.06,7.06,0,0,1-1.9-5.06,7.58,7.58,0,0,1,2.08-5.06,7.18,7.18,0,0,1,5.15-2.07,6.63,6.63,0,0,1,5,2.07A6.86,6.86,0,0,1,73,456.37a6.67,6.67,0,0,1-2.26,5.06,7.26,7.26,0,0,1-5.15,2A6.91,6.91,0,0,1,60.56,461.43Z"/><path class="cls-2" d="M78.44,481.75c-1.44-12.1.73-20.5,5.69-25.92,7.59-8.4,21.77-10.12,37.3-10.12l-13.36,67.83c9.75,1,29.26,7.5,40.19,14.72l-16.62,8c-8.31-9.57-25.83-19.42-37.12-19.51l12.55-62.86c-6.41.63-12.91,1.54-16.79,4.88-3.26,3.07-3,10.21.9,17Z"/><path class="cls-2" d="M177.79,498.19c-6.23,16.62-27.91,22.49-29.08,6.95-9.57,14.27-30.17,11.65-28.54-7,1.26-14.54,8.4-29.08,24.57-29.63h22.85l-.73,3.44c-2.8,13.81-4.69,21.85-6.77,32.24s11.2,2.53,14.18-6Zm-24.47-21.41c-5.51-10-16.17-.27-19.33,14.36-3.43,16.35,2.53,24.84,15,8Z"/><path class="cls-2" d="M227.74,497.83c-8,20.77-32.43,23-28.45-.55,1.26-6.32,2.44-12.64,3.61-19,2-10.39-10.21-3-13.55,5.33l-5.69,30H170.84L180,468.47h12.37L191,475.25c9.75-11,26.91-10.66,23.12,9.66-2.17,11.2-1.63,7.95-3.61,19s10.83,2.71,13.72-6.05Z"/><path class="cls-2" d="M276.6,497.74c-6.23,17.07-27.91,23-29.08,7-9.67,14.45-30.17,11.92-28.54-7,2.34-27.37,25.2-33.78,33-27.37.36.36.72.81,1.18,1.35l4.33-21.31h12.29c-3.26,16.53-8.4,42.81-10.57,53.38s10.93,2.71,13.91-6.05Zm-24.48-21.41c-5.51-9.93-16.25-.27-19.23,14.45-3.62,16.44,2.43,25,15,8a9.1,9.1,0,0,1,.18-1.54Z"/><path class="cls-3" d="M366,445.8l-13.64,67.83-12.55-.09L349.21,472l-23.66,41.54H314.26l4.43-41.36-19.06,41.36h-8.58l27.82-60.15c-5.78.9-11.47,2-14.45,5.6-2.35,2.71-1.72,9.94,1.44,15.53l-12.28,5.6c-1.18-11.74,1.26-20.59,6.5-25.56,4.25-4.06,9.94-6.32,16.53-7.67,5.78-1.18,11.2-1.18,17.88-1.18L329,490.06l25.47-44.17Z"/><path class="cls-3" d="M413.16,481.3a44.06,44.06,0,0,1-10.75,7.4c-2.62,20.6-19.42,28.54-30.07,24.48-8.4-3.07-11.47-10.84-10.57-19.15,1-8.76,6.23-17.88,14.63-22.67s21-5.32,25.29,5.15a16.53,16.53,0,0,1,1.17,6.32,31.58,31.58,0,0,0,10-4.6Zm-21.59,9.12a20.11,20.11,0,0,1-8.67-4.15l4.7-6.42a12.57,12.57,0,0,0,3.88,2.44c-1.44-6.68-7.13-12.64-12.28-5.51-4.52,6.51-8.58,26.28-.54,30.8,4.33,2.53,10.57-1.9,12.91-16.8Z"/><path class="cls-3" d="M437.82,497.83c-7.23,19.32-33.87,24.47-28.82-.36L413.79,474h-5.42l2.26-5.51H415l2.43-11.74,12.83-2.53-2.8,14.27h7.31L432.13,474h-5.69l-6.06,30c-2.07,10.57,10.75,2.71,13.82-6.14Z"/><path class="cls-3" d="M485.41,481.3a43.87,43.87,0,0,1-10.75,7.4c-2.61,20.6-19.41,28.54-30.07,24.48-8.4-3.07-11.47-10.84-10.57-19.15,1-8.76,6.23-17.88,14.63-22.67s21-5.32,25.29,5.15a16.53,16.53,0,0,1,1.18,6.32,31.62,31.62,0,0,0,10-4.6Zm-21.58,9.12a20.11,20.11,0,0,1-8.67-4.15l4.69-6.42a12.61,12.61,0,0,0,3.89,2.44c-1.45-6.68-7.14-12.64-12.29-5.51-4.51,6.51-8.58,26.28-.54,30.8,4.34,2.53,10.57-1.9,12.92-16.8Z"/><path class="cls-3" d="M521.81,471.45l-8.4,7c-7.31-5.33-14,1.62-18.6,9.12l-5.06,26.1H477l9.13-45.16h12.37l-1.9,9.85C502.3,468.84,510,464.41,521.81,471.45Z"/><path class="cls-3" d="M548.18,480.12c1.36-2.7,2.89-7.67-2.53-8.12a8.82,8.82,0,0,0-6.32,1.53c-2.8,1.18-4.33,3.79-4,5.6a4.72,4.72,0,0,0,1.71,3.52,35.31,35.31,0,0,0,6.51,4.34,66.77,66.77,0,0,1,7.31,4.33,12.85,12.85,0,0,1,4.25,5.6c4.69,18.79-35.32,23.4-38,8.67-.72-4.33,2-9.3,7.41-11.65l6.68,5.69c-5.6,1.72-8.12,4.7-7,7.14,1.17,3,7.23,3.88,12.28,2,2.89-1.27,5.24-3.08,6.41-5.79,1.36-3.07-1.89-5.69-4.42-7.58-3.16-1.81-5-2.53-7.23-4.25a19.15,19.15,0,0,1-6.32-6c-3.79-5.15-2.35-11.83,5.51-15a26.94,26.94,0,0,1,13.64-2c6.77.36,11.92,3,14.09,7.68a12.88,12.88,0,0,1,.18,7.86Z"/><path class="cls-4" d="M502.23,335.2a195.2,195.2,0,0,1,2.08,24.07c.2,8.67,5.24,15.52,11.35,15.52h9.55V335.2Z"/><rect class="cls-3" x="525.21" y="335.2" width="45.5" height="39.58"/><path class="cls-4" d="M570.71,374.79h9.34c6.78,0,12.1-8.39,11.3-18q-.93-10.92-2.49-21.64H570.71Z"/><path class="cls-3" d="M525.21,289.71h-35.4c.08.18.15.36.22.54l1,2.71,2,5.37c.36.88.65,1.8.93,2.72l.86,2.73,1.58,4.91.3,1,1.31,5c.46,1.83,1.05,3.61,1.38,5.48l1.18,5.5c.18.92.43,1.81.57,2.74l.44,2.77c.23,1.33.44,2.67.64,4h23Z"/><rect class="cls-4" x="525.21" y="289.71" width="45.5" height="45.5"/><path class="cls-3" d="M570.71,335.2h18.15a346.27,346.27,0,0,0-8.62-41.47l-1.08-4h-8.45Z"/><path class="cls-4" d="M525.21,244.21h-1.27l-40.58,31.14q3,6,5.54,12.25c.3.71.62,1.4.91,2.11h35.4Z"/><path class="cls-3" d="M525.21,289.71h45.5V264.37l-2.7-7.12c-1.2-2.85-2.43-5.66-3.66-8.47l-1.84-4.21c0-.12-.1-.24-.16-.36H525.21Z"/><path class="cls-4" d="M577.53,284.29l-3-9.24c-1-3.11-2.13-6-3.22-9l-.64-1.71v25.34h8.45L579,289C578.53,287.36,578,285.84,577.53,284.29Z"/><polygon points="525.21 243.24 523.94 244.21 525.21 244.21 525.21 243.24"/><path class="cls-4" d="M562.35,244.21c-.55-1.29-1.13-2.56-1.74-3.76l-4-8-2-4c-.68-1.31-1.4-2.55-2.1-3.83l-.91-1.64-26.41,20.27v1Z"/><path class="cls-2" d="M579.7,377.71H515.35c-8.31,0-15-8.49-15.27-19.33a190.88,190.88,0,0,0-2.66-27.5l-.44-2.81c-.08-.5-.2-1-.31-1.46l-.24-1.11-1.2-5.59c-.19-1.09-.5-2.19-.82-3.37-.17-.61-.34-1.21-.49-1.83l-1.31-4.94c-.07-.29-.15-.56-.24-.83l-2.44-7.67c-.29-1-.54-1.72-.82-2.42l0-.1-3-8.1-.62-1.45-.44-1c-1.69-4.05-3.52-8.1-5.45-12.06l7.05-3.45c2,4.1,3.9,8.3,5.64,12.47q.18.44.39.9c.26.6.52,1.2.76,1.81l3,8.09c.39,1,.69,1.89,1,3l2.42,7.59c.12.4.25.81.36,1.23l1.3,5,.46,1.7c.36,1.28.72,2.6,1,4l1.17,5.44c.07.35.14.65.21,1,.13.59.29,1.28.4,2l.44,2.75a201.07,201.07,0,0,1,2.76,28.58c.15,6.33,3.55,11.67,7.42,11.67H579.7a5.71,5.71,0,0,0,4-2.06c2.44-2.65,3.72-7.11,3.34-11.62a347.18,347.18,0,0,0-11-62.37L574.83,289c-.26-.95-.56-1.89-.88-2.89-.18-.55-.35-1.09-.52-1.64l-2.94-9.18c-.67-2.19-1.43-4.21-2.24-6.35-.31-.82-.62-1.64-.92-2.47L564,257.77c-.9-2.15-1.83-4.27-2.75-6.4l-2.69-6.15c-.56-1.3-1.16-2.65-1.8-3.91l-6-12c-.4-.76-.85-1.57-1.3-2.37l-.73-1.31c-.3-.56-.6-1.1-.9-1.64l6.86-3.81c.31.56.62,1.11.92,1.67l.7,1.25c.48.87,1,1.74,1.44,2.63l6,12.08c.72,1.41,1.38,2.91,2,4.31l2.69,6.15c.95,2.18,1.89,4.36,2.82,6.56l.05.13,3.34,8.82c.31.84.61,1.64.91,2.43.82,2.17,1.67,4.41,2.39,6.79l2.94,9.17c.17.57.34,1.08.5,1.59.33,1,.68,2.11,1,3.25l1.29,4.78a355.1,355.1,0,0,1,11.22,63.76c.56,6.73-1.45,13.31-5.39,17.6A13.39,13.39,0,0,1,579.7,377.71Z"/><path class="cls-2" d="M440.29,208.15c-.78-.77-1.55-1.54-2.34-2.3l0,0c-4.25-4.15-8.66-8.12-13.18-11.95-1.59,2.12-3.63,3.78-5.32,5.79,3.32,2.79,6.57,5.65,9.74,8.63h0q2.82,2.65,5.57,5.4a238.48,238.48,0,0,1,24.36,28.5l6.35-4.61A246.56,246.56,0,0,0,440.29,208.15Z"/><path class="cls-2" d="M517.76,167.3a291.69,291.69,0,0,0-43.29-40.52,279.84,279.84,0,0,0-94.06-46.72A267,267,0,0,0,332,71.25a294.66,294.66,0,0,0-48.29-.3,297.81,297.81,0,0,0-47.59,8,277.19,277.19,0,0,0-46.37,16.15,296.36,296.36,0,0,0-85.34,58.2A300.46,300.46,0,0,0,38.8,248.42c-16.75,37.86-25.15,82-23.62,124.11a5.16,5.16,0,0,0,5,5.19,5.11,5.11,0,0,0,4.95-5.1,261.41,261.41,0,0,1,9.6-58.41l1-3.6c.18-.66.41-1.33.65-2.05.15-.44.3-.87.43-1.27l2.34-7.06c.46-1.51,1-3,1.65-4.5.28-.7.54-1.38.8-2L44,287.38c.09-.22.18-.44.28-.65l4.18-9.34c.4-.9.86-1.95,1.41-3l4.71-9.22c.34-.62.69-1.22,1-1.83.2-.35.41-.71.62-1.09a240.63,240.63,0,0,1,30-42.1,234,234,0,0,1,114.49-70.44,227.12,227.12,0,0,1,41.36-7.06,252.31,252.31,0,0,1,31.87-.46v-7.87a262.14,262.14,0,0,0-32.49.5,235.51,235.51,0,0,0-42.78,7.31A241.69,241.69,0,0,0,80.45,215a247.13,247.13,0,0,0-31,43.46l-.58,1c-.4.68-.79,1.36-1.21,2.13l-4.71,9.22c-.64,1.2-1.19,2.42-1.64,3.43l-4.17,9.33c-.15.33-.3.66-.42,1l-2.48,6.33c-.24.66-.5,1.32-.76,2-.64,1.61-1.3,3.29-1.82,5l-2.34,7c-.12.39-.26.79-.39,1.18-.2.57-.39,1.16-.58,1.77A270.16,270.16,0,0,1,46,251.57a292,292,0,0,1,63.87-92.63A288.3,288.3,0,0,1,193,102.27,270.39,270.39,0,0,1,238,86.57a291.77,291.77,0,0,1,46.28-7.8,286.37,286.37,0,0,1,47,.3,258.62,258.62,0,0,1,47,8.55A271.91,271.91,0,0,1,469.71,133a282.19,282.19,0,0,1,42.13,39.43,294.67,294.67,0,0,1,22,28.6l6.5-4.39A304.6,304.6,0,0,0,517.76,167.3Z"/><path class="cls-3" d="M315,407a31.62,31.62,0,0,1-3.23-.17A31.15,31.15,0,0,1,290,394.27h0a31.17,31.17,0,0,1-5.41-24.55,30.2,30.2,0,0,1,14.08-19.88L550.82,199.76l3.67,5L335,399.49A30.14,30.14,0,0,1,315,407Zm-20.23-16.25A25.23,25.23,0,0,0,312.4,401a24,24,0,0,0,18.68-5.93L528.75,219.74,301.7,354.9a24,24,0,0,0-11.32,16,25.22,25.22,0,0,0,4.39,19.89Z"/><path class="cls-2" d="M311.33,379.8a4.07,4.07,0,0,1,1.15-5.9L349.19,352l.07.11-32,28.34a4.06,4.06,0,0,1-6-.69Z"/><path class="cls-1" d="M218.29,252.66a83.42,83.42,0,0,0-16.82,5.23c1.07.06,2.13.17,3.19.3l2.57.44c.85.16,1.67.41,2.51.63a22.22,22.22,0,0,1,2.49.75c.81.28,1.63.57,2.43.88s1.57.7,2.35,1.06a23.65,23.65,0,0,1,2.31,1.15,49.26,49.26,0,0,1,4.33,2.72,43.14,43.14,0,0,1,7.4,6.79,40.31,40.31,0,0,1,8.85,17.08,89.33,89.33,0,0,0-14-11.23,58.09,58.09,0,0,0-7.36-3.92,56.33,56.33,0,0,0-7.62-2.63,52.22,52.22,0,0,0-7-1.24,8.94,8.94,0,0,1-6.05,7.83,8.95,8.95,0,0,1-12,5.35,8.85,8.85,0,0,1-4.69,1.8,500.91,500.91,0,0,1-1,90.87l-17.33-2.71a486.5,486.5,0,0,0,10.47-89.42,9.72,9.72,0,0,1-1.8.18,9,9,0,0,1-3.53-.72,8.86,8.86,0,0,1-5.42,1.84,9,9,0,0,1-8.73-6.94,9,9,0,0,1-6.9-7.91,53,53,0,0,0-5.51,1.07,56.81,56.81,0,0,0-7.62,2.63,58.09,58.09,0,0,0-7.36,3.92,89.27,89.27,0,0,0-14,11.23,40.07,40.07,0,0,1,8.84-17.08,43.2,43.2,0,0,1,7.41-6.79,49.26,49.26,0,0,1,4.33-2.72,24.49,24.49,0,0,1,2.29-1.15c.79-.36,1.57-.72,2.36-1.06s1.61-.6,2.43-.88a22.71,22.71,0,0,1,2.48-.75c.84-.22,1.68-.47,2.53-.63l2.55-.44c1.06-.13,2.14-.24,3.21-.3a83.71,83.71,0,0,0-16.83-5.23,73.49,73.49,0,0,0-10.57-1,76.34,76.34,0,0,0-11,.63,97.56,97.56,0,0,0-11.35,2.18c-3.83,1-7.71,2.19-11.72,3.51a52.51,52.51,0,0,1,20-15.93,55.89,55.89,0,0,1,12.69-4.18,57.94,57.94,0,0,1,6.73-.93c1.14-.13,2.28-.13,3.42-.15s2.29,0,3.44,0,2.29.17,3.43.28c.57.06,1.15.09,1.72.17l1.7.28c1.13.2,2.29.35,3.4.62s2.23.58,3.35.88a53.17,53.17,0,0,1,12.5,5.57c.29.18.59.36.87.55-.54-.62-1.1-1.23-1.66-1.84a114.85,114.85,0,0,0-17.85-15.93,95.57,95.57,0,0,0-10.44-6.23,98.77,98.77,0,0,0-11.47-4.88,121,121,0,0,0-12.42-3.58c-4.29-1-8.72-1.73-13.33-2.44a61.44,61.44,0,0,1,27.77-4.48,69.42,69.42,0,0,1,14.36,2.41c1.19.35,2.35.72,3.53,1.1s2.3.86,3.46,1.28,2.27,1,3.39,1.49,2.25,1,3.36,1.61,2.16,1.21,3.23,1.85c.53.31,1.07.61,1.6.95l1.55,1c1,.7,2.09,1.37,3.07,2.12s2,1.55,2.92,2.34a63.49,63.49,0,0,1,10.14,10.85,62,62,0,0,1,6,10,61.18,61.18,0,0,1,4.23-6.61,62.79,62.79,0,0,1,10.15-10.85c1-.8,1.94-1.58,2.91-2.34s2.05-1.42,3.08-2.13l1.54-1c.52-.33,1.07-.63,1.61-1,1.06-.63,2.15-1.25,3.23-1.84s2.24-1.08,3.36-1.61a32,32,0,0,1,3.39-1.49c1.15-.43,2.29-.9,3.45-1.29s2.35-.75,3.53-1.09a69.53,69.53,0,0,1,14.37-2.42,61.38,61.38,0,0,1,27.76,4.49c-4.61.7-9,1.46-13.32,2.43a124.51,124.51,0,0,0-12.43,3.58,101.14,101.14,0,0,0-11.46,4.88,95.71,95.71,0,0,0-10.45,6.23,98,98,0,0,0-9.57,7.73l1.18-.31c1.12-.27,2.27-.42,3.41-.62l1.7-.28c.57-.08,1.14-.11,1.71-.17,1.16-.11,2.3-.21,3.44-.28s2.3,0,3.44,0,2.29,0,3.42.15a58.24,58.24,0,0,1,6.73.93A55.89,55.89,0,0,1,243,242,52.54,52.54,0,0,1,263,258c-4-1.32-7.9-2.53-11.73-3.51a96.53,96.53,0,0,0-11.36-2.18,76.06,76.06,0,0,0-11-.63A73.63,73.63,0,0,0,218.29,252.66Z"/><path class="cls-3" d="M29,391.8c3.53-1.5,7.1-2.94,10.68-4.37,1.8-.71,3.59-1.44,5.41-2.1l5.51-1.91c3.69-1.23,7.36-2.57,11.13-3.66s7.56-2.17,11.35-3.26a297.79,297.79,0,0,1,47.32-8.56,234.82,234.82,0,0,1,49.22.29c2.06.2,4.09.57,6.14.84s4.1.54,6.12,1l6.07,1.19c2,.4,4,.95,6,1.41l3,.73c1,.26,2,.56,2.95.84,2,.58,4,1.1,5.88,1.74l5.78,1.95c1.9.69,3.76,1.44,5.64,2.15,7.43,2.95,14.55,6.2,21.37,9.58s13.48,6.72,20.11,9.92,13.31,6.06,20.13,8.55a131.14,131.14,0,0,0,21,5.74,132.51,132.51,0,0,0,22.1,2.15,146.73,146.73,0,0,0,22.51-1.52,166.9,166.9,0,0,0,22.17-4.83A206.91,206.91,0,0,0,388,402l1.85,2.39a147.68,147.68,0,0,1-20.43,10.39,143.49,143.49,0,0,1-47.09,10.88c-2.07.15-4.16.11-6.24.16s-4.18.11-6.27-.05l-6.28-.31c-2.09-.18-4.16-.46-6.24-.7A138.17,138.17,0,0,1,273,419.47,214,214,0,0,1,250.71,411c-7.12-3.1-14-6.37-20.76-9.51s-13.49-6.09-20.29-8.7A186.78,186.78,0,0,0,167,382.26a279.35,279.35,0,0,0-45.29-1.76,454.25,454.25,0,0,0-46,4.42c-15.36,2.21-30.6,5.29-46.12,8.14Z"/><path class="cls-1" d="M310,107.05c17.32,1.09-1.27,37.75,13.31,48.06-21.68,1.87-1.86-38.25-13.31-48.06Z"/><path class="cls-3" d="M311.58,177.52c9.68,49.54,84.35.72,39.41-25.8,2.72-24.63,30.79-19,40.29-35.5,1.63,18.41-31.41,13.93-34.3,34.07,8,8.77,16.28,13.86,17.32,25,4.17,44.47-64.5,49.14-62.72,2.24Z"/><path class="cls-2" d="M278.37,133.53c17.81-.52,17.46,29.65,33.9,36.23C289.81,174,295.54,139.66,278.37,133.53Z"/><path class="cls-1" d="M333.21,154c44.37-8.72,19.3,63.21-12.45,30.15C341.65,200.28,368,158.42,333.21,154Z"/><path class="cls-1" d="M423.66,191.39c-15.67,9.94-25.2-20.56-45.83-11.89-1.87-.22-1.29-2.5-1.59-4.05,20.51-12.72,27.59,16.2,47.42,15.94Z"/><path class="cls-1" d="M309,185.1c-4.07,13.69-31.13-4.61-36-13-4.27-3.24-15.84,1.36-7.41-4.57,16.95,3.55,26.81,19.25,43.38,17.54Z"/><path class="cls-2" d="M408.58,229.12c-18.59,3-19.16-34.17-34.06-34.29C394.5,184.9,391.09,225.08,408.58,229.12Z"/><path class="cls-1" d="M313.56,199.18c2.49.92,2.75,3.68,5.48,4.39-6.91,17.93-41-2.12-49.67,9.27-1.87-15.85,41.36,3.69,44.19-13.66Z"/><path class="cls-2" d="M328.21,210.25a9.18,9.18,0,0,0,5.64,2.46c-3.6,22.85-32,16.08-40.11,33.55-2.26-19.89,33-13.44,34.47-36Z"/><path class="cls-1" d="M353.54,101.14c6.21,6.79-15.15,28.39-15.94,47.43C324.65,127.78,352.75,119.72,353.54,101.14Z"/><path class="cls-1" d="M384.51,154.64h0a8.48,8.48,0,0,1,1.36.18c13.22,2.16,35.49,3.87,31.89-6.93-7.8,9.23-26.74.47-39.22,2.36h0l-8,4a13.61,13.61,0,0,0-2.64,4.84c3.47,3.33,5.89,1.59,8.59-.61Z"/><path class="cls-3" d="M325,180.66c5.92-2.22,14.61-1.12,12.84-12.53-.33-2.93-7.41-9.07-9.35-4.74C341.88,147.68,349.81,192.46,325,180.66Z"/><path class="cls-1" d="M363.79,205.61c15.35,1.29,7.29,25.95,6.24,39.63-.74,9.67,9,14.86-2.45,5.64,5.67-19.95-2.5-37-3.79-45.27Z"/><path class="cls-1" d="M347.42,213.92c9.65,18.94-11.72,34.08-14,47.6-.14.84-3.52-6.56-3.19-8.1,1.55-7.24,20.08-25.94,17.19-39.5Z"/></svg>