<svg xmlns="http://www.w3.org/2000/svg" viewBox="0 0 362 78.06"><defs><style>.cls-1{fill:#3e4346;}.cls-2,.cls-5{fill:#efc600;}.cls-3,.cls-4{fill:#224a95;}.cls-4,.cls-5{font-size:60px;font-family:BlendaScript, Blenda Script;}.cls-6,.cls-7,.cls-8,.cls-9{fill:#fff;}.cls-7{letter-spacing:0em;}.cls-8{letter-spacing:0.04em;}.cls-9{letter-spacing:-0.02em;}.cls-10{fill:none;}</style></defs><title>name-logo</title><g id="Layer_2" data-name="Layer 2"><g id="Layer_1-2" data-name="Layer 1"><rect class="cls-1" x="177" y="4.89" width="185" height="50" rx="5" ry="5"/><path class="cls-2" d="M23.48,54.89H5.2A5.2,5.2,0,0,1,0,49.69V10.1A5.2,5.2,0,0,1,5.2,4.89H39.31A5.21,5.21,0,0,1,44.15,12L28.31,51.62A5.2,5.2,0,0,1,23.48,54.89Z"/><path class="cls-3" d="M178,9.89v40a5,5,0,0,1-5,5H34.39A5,5,0,0,1,29.74,48l16-40a5,5,0,0,1,4.65-3.15H173A5,5,0,0,1,178,9.89Z"/><text class="cls-4" transform="translate(5 52.56)">i</text><text class="cls-5" transform="translate(41 52.56)">L<tspan class="cls-6" x="30.66" y="0">and</tspan></text><text class="cls-5" transform="translate(177 52.56)">M<tspan class="cls-7" x="49.2" y="0">o</tspan><tspan class="cls-8" x="79.02" y="0">t</tspan><tspan class="cls-9" x="97.2" y="0">o</tspan><tspan class="cls-6" x="125.94" y="0">rs</tspan></text><path class="cls-10" d="M47,4.89l-20,48Z"/></g></g></svg>