<svg id="ei8QmcfTPYW1" xmlns="http://www.w3.org/2000/svg" xmlns:xlink="http://www.w3.org/1999/xlink" viewBox="0 0 420 420" shape-rendering="geometricPrecision" text-rendering="geometricPrecision" style="background-color:transparent"><style><![CDATA[#ei8QmcfTPYW18_tr {animation: ei8QmcfTPYW18_tr__tr 1000ms linear 1 normal forwards}@keyframes ei8QmcfTPYW18_tr__tr { 0% {transform: translate(236.722535px,165.047562px) rotate(0deg)} 100% {transform: translate(236.722535px,165.047562px) rotate(359.902312deg)}} #ei8QmcfTPYW18_ts {animation: ei8QmcfTPYW18_ts__ts 1000ms linear 1 normal forwards}@keyframes ei8QmcfTPYW18_ts__ts { 0% {transform: scale(0.2,0.2)} 100% {transform: scale(1,1)}} #ei8QmcfTPYW33_tr {animation: ei8QmcfTPYW33_tr__tr 1000ms linear 1 normal forwards}@keyframes ei8QmcfTPYW33_tr__tr { 0% {transform: translate(216.031382px,297.5px) rotate(-130deg)} 50% {transform: translate(216.031382px,297.5px) rotate(0deg)} 60% {transform: translate(216.031382px,297.5px) rotate(20deg)} 80% {transform: translate(216.031382px,297.5px) rotate(-5deg)} 100% {transform: translate(216.031382px,297.5px) rotate(0deg)}}]]></style><path id="ei8QmcfTPYW2" d="M343,268.82C343.806103,274.198696,344.27369,279.622701,344.4,285.06C344.54,290.9,347.94,295.52,352.06,295.52L358.5,295.52L358.5,268.82Z" fill="none" stroke="none" stroke-width="1"/><rect id="ei8QmcfTPYW3" width="30.69" height="26.7" rx="0" ry="0" transform="matrix(1 0 0 1 358.54 268.82)" fill="rgb(62,67,70)" stroke="none" stroke-width="1"/><path id="ei8QmcfTPYW4" d="M389.23,295.52L395.53,295.52C400.11,295.52,403.7,289.87,403.16,283.42Q402.53,276.05,401.48,268.82L389.23,268.82Z" fill="none" stroke="none" stroke-width="1"/><path id="ei8QmcfTPYW5" d="M358.54,238.13L334.67,238.13C334.72,238.25,334.77,238.38,334.81,238.5L335.49,240.33L336.84,243.95C337.09,244.55,337.28,245.16,337.47,245.78L338.05,247.63L339.11,250.94C339.19,251.17,339.25,251.4,339.32,251.64L340.2,255C340.52,256.23,340.91,257.43,341.13,258.69L341.93,262.41C342.05,263.02,342.22,263.63,342.32,264.25L342.61,266.12C342.76,267.02,342.9,267.92,343.04,268.82L358.54,268.82Z" fill="rgb(62,67,70)" stroke="none" stroke-width="1"/><rect id="ei8QmcfTPYW6" width="30.69" height="30.69" rx="0" ry="0" transform="matrix(1 0 0 1 358.54 238.13)" fill="none" stroke="none" stroke-width="1"/><path id="ei8QmcfTPYW7" d="M389.23,268.82L401.48,268.82C400.113382,259.377403,398.173126,250.026771,395.67,240.82L394.94,238.1L389.23,238.1Z" fill="rgb(62,67,70)" stroke="none" stroke-width="1"/><path id="ei8QmcfTPYW8" d="M358.54,207.44L357.69,207.44L330.32,228.44C331.65,231.16,332.89,233.92,334.05,236.7C334.25,237.18,334.47,237.65,334.67,238.12L358.54,238.12Z" fill="none" stroke="none" stroke-width="1"/><path id="ei8QmcfTPYW9" d="M358.54,238.13L389.23,238.13L389.23,221L387.41,216.2C386.61,214.28,385.77,212.38,384.95,210.48L383.71,207.65C383.71,207.56,383.63,207.48,383.6,207.4L358.54,207.4Z" fill="rgb(62,67,70)" stroke="none" stroke-width="1"/><path id="ei8QmcfTPYW10" d="M393.83,234.48L391.83,228.25C391.19,226.15,390.39,224.2,389.66,222.19L389.22,221.04L389.22,238.13L394.93,238.13L394.79,237.62C394.51,236.55,394.16,235.53,393.83,234.48Z" fill="none" stroke="none" stroke-width="1"/><polygon id="ei8QmcfTPYW11" points="358.54,206.79 357.69,207.44 358.54,207.44 358.54,206.79" fill="rgb(0,0,0)" stroke="none" stroke-width="1"/><path id="ei8QmcfTPYW12" d="M383.6,207.44C383.22,206.58,382.84,205.72,382.42,204.9L379.74,199.49L378.39,196.8C377.93,195.93,377.44,195.08,376.97,194.23C376.77,193.85,376.56,193.48,376.36,193.11L358.54,206.79L358.54,207.44Z" fill="none" stroke="none" stroke-width="1"/><path id="ei8QmcfTPYW13" d="M395.3,297.5L351.89,297.5C346.29,297.5,341.77,291.77,341.59,284.45C341.439954,278.234996,340.841735,272.038913,339.8,265.91L339.5,264.01C339.45,263.67,339.37,263.35,339.3,263.01C339.23,262.67,339.18,262.51,339.13,262.26L338.32,258.48C338.19,257.75,337.99,257.01,337.77,256.22C337.65,255.81,337.54,255.4,337.43,254.98L336.56,251.64C336.51,251.45,336.45,251.27,336.39,251.09L334.75,245.92C334.55,245.26,334.38,244.75,334.19,244.28L334.19,244.22L332.19,238.75C332.07,238.46,331.92,238.11,331.77,237.75C331.62,237.39,331.57,237.3,331.48,237.07C330.34,234.34,329.11,231.6,327.8,228.94L332.56,226.61C333.91,229.37,335.19,232.2,336.36,235.02L336.62,235.63C336.8,236.03,336.98,236.43,337.14,236.85L339.14,242.31C339.403974,242.964457,339.634275,243.631997,339.83,244.31L341.46,249.43C341.55,249.7,341.63,249.97,341.71,250.26L342.59,253.61C342.69,254.01,342.8,254.39,342.9,254.76C343.14,255.62,343.39,256.51,343.56,257.47L344.34,261.14C344.39,261.37,344.44,261.58,344.49,261.78C344.58,262.19,344.68,262.65,344.76,263.13L345.05,264.99C346.140037,271.362817,346.765019,277.80649,346.92,284.27C347.02,288.54,349.31,292.14,351.92,292.14L395.3,292.14C396.361176,292.077509,397.347663,291.573386,398.02,290.75C399.796344,288.546588,400.610903,285.720858,400.28,282.91C399.103013,268.69014,396.625999,254.607978,392.88,240.84L392.01,237.61C391.84,236.97,391.64,236.33,391.42,235.66C391.3,235.29,391.18,234.93,391.07,234.56L389.07,228.36C388.62,226.89,388.07,225.52,387.56,224.08L386.93,222.42L384.7,216.53C384.1,215.08,383.47,213.65,382.85,212.21L381.03,208.06C380.66,207.19,380.25,206.28,379.82,205.43L375.82,197.31C375.55,196.8,375.24,196.25,374.94,195.71L374.45,194.83L373.84,193.72L378.47,191.16C378.68,191.53,378.89,191.9,379.09,192.28C379.29,192.66,379.4,192.84,379.56,193.12C379.89,193.71,380.22,194.3,380.56,194.9L384.62,203.05C385.1,204,385.55,205.05,385.96,205.95L387.77,210.1C388.41,211.57,389.05,213.04,389.68,214.53L389.68,214.61L391.94,220.61C392.14,221.17,392.35,221.71,392.55,222.25C393.1,223.71,393.67,225.25,394.16,226.82L396.16,233.01L396.5,234.08C396.73,234.78,396.96,235.51,397.16,236.27L398.03,239.5C401.859636,253.572429,404.393534,267.965771,405.6,282.5C406.060752,286.787937,404.745336,291.077494,401.96,294.37C400.28746,296.314721,397.864597,297.453394,395.3,297.5Z" fill="rgb(34,74,149)" stroke="none" stroke-width="1"/><path id="ei8QmcfTPYW14" d="M301.26,183.12L299.68,181.57L299.68,181.57Q295.37,177.37,290.79,173.51C289.72,174.93,288.34,176.05,287.2,177.41Q290.56,180.23,293.77,183.23L293.77,183.23C295.04,184.42,296.29,185.64,297.53,186.87C303.515518,192.834856,309.022507,199.261348,314,206.09L318.28,202.98C313.139049,195.9217,307.447976,189.281,301.26,183.12Z" fill="rgb(34,74,149)" stroke="none" stroke-width="1"/><path id="ei8QmcfTPYW15" d="M353.52,155.56C344.736367,145.482014,334.949206,136.32477,324.31,128.23C305.342487,113.815397,283.816473,103.123646,260.87,96.72C250.185858,93.712809,239.245563,91.704187,228.19,90.72C217.357079,89.762592,206.463862,89.695701,195.62,90.52C184.79165,91.449556,174.056485,93.255471,163.52,95.92C152.792272,98.6237,142.324794,102.271255,132.24,106.82C110.897652,116.431985,91.411118,129.720874,74.67,146.08C55.90516,164.394068,40.879763,186.181575,30.43,210.23C18.963371,236.623366,13.521525,265.240029,14.5,294C14.487884,295.880051,15.97122,297.429806,17.85,297.5C19.70682,297.446006,21.185385,295.9276,21.19,294.07C21.849198,280.730911,24.019747,267.509685,27.66,254.66L28.34,252.24C28.46,251.79,28.62,251.34,28.78,250.85L29.07,250L30.65,245.23C30.96,244.23,31.35,243.23,31.76,242.23C31.95,241.76,32.13,241.29,32.3,240.85L34,236.57C34.04959,236.416043,34.109732,236.265686,34.18,236.12L37,229.82C37.27,229.22,37.58,228.51,38,227.82L41.17,221.6C41.4,221.18,41.64,220.78,41.88,220.37L42.3,219.63C48.01007,209.463304,54.799276,199.941652,62.55,191.23C83.101338,168.18634,109.954169,151.669276,139.79,143.72C148.895882,141.298277,158.205008,139.718303,167.6,139C174.756627,138.450547,181.940512,138.347013,189.11,138.69L189.11,133.39C181.800046,133.046914,174.475804,133.160468,167.18,133.73C157.432053,134.475723,147.774132,136.122758,138.33,138.65C107.498622,146.861226,79.753163,163.936158,58.53,187.76C50.525671,196.726174,43.511775,206.529536,37.61,217L37.22,217.68C36.95,218.13,36.68,218.59,36.41,219.11L33.23,225.33C32.8,226.14,32.43,226.96,32.12,227.64L29.31,234C29.21,234.23,29.11,234.45,29.02,234.69L27.35,238.96C27.19,239.4,27.01,239.85,26.84,240.29C26.41,241.38,25.96,242.51,25.61,243.65L24,248.36C23.92,248.62,23.83,248.89,23.74,249.15C23.65,249.41,23.47,249.93,23.35,250.34C25.918908,237.298641,29.912869,224.578998,35.26,212.41C45.430241,188.982586,60.062178,167.758126,78.34,149.92C94.621146,133.99488,113.576631,121.057762,134.34,111.7C144.143258,107.276919,154.319882,103.733004,164.75,101.11C175.007366,98.514866,185.45828,96.755769,196,95.85C206.547546,95.04576,217.143449,95.112653,227.68,96.05C238.408101,96.989467,249.026521,98.917654,259.4,101.81C281.704987,108.042813,302.629547,118.43893,321.07,132.45C331.422696,140.327795,340.945263,149.240543,349.49,159.05C354.822404,165.171297,359.775004,171.61335,364.32,178.34L368.7,175.34C364.043786,168.446383,358.974514,161.840968,353.52,155.56Z" fill="rgb(34,74,149)" stroke="none" stroke-width="1"/><path id="ei8QmcfTPYW16" d="M151.51,213.14C147.613148,213.914613,143.808797,215.097816,140.16,216.67C140.88,216.67,141.6,216.79,142.32,216.88L144.05,217.17C144.62,217.28,145.18,217.45,145.74,217.59C146.3,217.73,146.87,217.9,147.42,218.1C147.97,218.3,148.52,218.48,149.06,218.7C149.6,218.92,150.12,219.17,150.65,219.41C151.181285,219.639873,151.698817,219.900309,152.2,220.19C153.204211,220.749287,154.178844,221.360102,155.12,222.02C156.959387,223.346683,158.637434,224.883775,160.12,226.6C163.022289,229.898209,165.081161,233.851244,166.12,238.12C163.240344,235.284721,160.080883,232.748441,156.69,230.55C155.08844,229.548945,153.417536,228.663366,151.69,227.9C150.020997,227.188365,148.303293,226.59686,146.55,226.13C145.004753,225.741138,143.434281,225.460458,141.85,225.29C141.684317,227.713678,140.073497,229.798269,137.77,230.57C136.950327,233.025275,134.648469,234.678097,132.06,234.67C131.241834,234.667929,130.432445,234.501291,129.68,234.18C128.765705,234.88173,127.668646,235.305278,126.52,235.4C128.147669,255.808512,127.920069,276.322624,125.84,296.69L114.14,294.87C118.350835,275.024464,120.714265,254.83153,121.2,234.55C120.800991,234.625581,120.396082,234.665738,119.99,234.67C119.171721,234.669027,118.362115,234.502343,117.61,234.18C116.560132,234.985649,115.273364,235.421603,113.95,235.42C111.134774,235.432663,108.689328,233.486287,108.07,230.74C105.522276,230.166747,103.637912,228.011456,103.41,225.41C102.157858,225.582344,100.916022,225.822699,99.69,226.13C97.937188,226.598437,96.219594,227.189904,94.55,227.9C92.822286,228.662998,91.151356,229.548591,89.55,230.55C86.159117,232.748441,82.999656,235.284721,80.12,238.12C81.150502,233.848116,83.21037,229.893171,86.12,226.6C87.604963,224.886105,89.282725,223.349275,91.12,222.02C92.06,221.37,93.03,220.75,94.04,220.19C94.541183,219.900309,95.058715,219.639873,95.59,219.41C96.12,219.17,96.59,218.92,97.18,218.7C97.77,218.48,98.27,218.29,98.82,218.1C99.37,217.91,99.93,217.74,100.49,217.59C101.05,217.44,101.62,217.28,102.2,217.17L103.92,216.88C104.63,216.79,105.36,216.71,106.08,216.67C102.431203,215.097816,98.626852,213.914613,94.73,213.14C92.372596,212.742014,89.989973,212.511438,87.6,212.45C85.116487,212.412645,82.633483,212.553004,80.17,212.87C77.593098,213.207819,75.038583,213.698686,72.52,214.34C69.94,215.01,67.32,215.82,64.61,216.71C68.147306,212.087088,72.770605,208.408371,78.07,206C80.800306,204.721096,83.67417,203.774333,86.63,203.18C88.129335,202.879175,89.645405,202.668795,91.17,202.55C91.937754,202.476762,92.708789,202.443383,93.48,202.45L95.8,202.45C96.57,202.5,97.34,202.56,98.11,202.64C98.5,202.64,98.89,202.7,99.27,202.75L100.42,202.94C101.18,203.08,101.96,203.18,102.72,203.36C103.48,203.54,104.22,203.75,104.97,203.95C107.93178,204.839323,110.768008,206.102855,113.41,207.71L113.99,208.08C113.63,207.66,113.25,207.25,112.87,206.84C109.255514,202.848313,105.233659,199.245401,100.87,196.09C98.625497,194.547009,96.287699,193.144331,93.87,191.89C91.360775,190.633773,88.775775,189.534982,86.13,188.6C83.380946,187.647225,80.583762,186.839447,77.75,186.18C74.86,185.53,71.87,185.01,68.75,184.54C74.677512,182.105672,81.088707,181.078786,87.48,181.54C90.757822,181.745521,94.005333,182.2918,97.17,183.17L99.55,183.91C100.33,184.18,101.1,184.49,101.89,184.78C102.666634,185.074042,103.427639,185.407816,104.17,185.78C104.93,186.15,105.69,186.49,106.44,186.87C107.19,187.25,107.89,187.69,108.62,188.12C108.97,188.33,109.34,188.53,109.7,188.76L110.75,189.46C111.43,189.93,112.15,190.39,112.81,190.89C113.47,191.39,114.13,191.89,114.81,192.47C117.371786,194.63057,119.667871,197.087783,121.65,199.79C123.192187,201.8989,124.531482,204.148916,125.65,206.51C126.506681,204.965723,127.458516,203.476185,128.5,202.05C130.491097,199.352081,132.789949,196.895497,135.35,194.73C136,194.2,136.66,193.67,137.35,193.16C138.04,192.65,138.73,192.16,139.42,191.72L140.42,191.02C140.78,190.79,141.15,190.59,141.51,190.38C142.23,189.95,142.96,189.53,143.69,189.13C144.42,188.73,145.2,188.41,145.95,188.05C146.695819,187.677915,147.460147,187.344148,148.24,187.05C149.02,186.77,149.79,186.45,150.57,186.19C151.35,185.93,152.15,185.68,152.95,185.45C156.113773,184.567784,159.361709,184.021434,162.64,183.82C169.031325,183.358055,175.442687,184.384968,181.37,186.82C178.26,187.3,175.28,187.82,172.37,188.47C169.536071,189.124797,166.738818,189.929258,163.99,190.88C161.347727,191.815631,158.766094,192.914412,156.26,194.17C153.824153,195.420599,151.469492,196.823376,149.21,198.37C146.949801,199.973429,144.792245,201.716842,142.75,203.59C143.01,203.51,143.29,203.44,143.55,203.38C144.31,203.2,145.08,203.1,145.85,202.96L147,202.77C147.38,202.72,147.77,202.7,148.15,202.66C148.93,202.58,149.7,202.52,150.47,202.47L152.79,202.47C153.557887,202.463169,154.325604,202.496548,155.09,202.57C156.617905,202.68878,158.137303,202.899159,159.64,203.2C162.595438,203.795819,165.469127,204.742525,168.2,206.02C173.506332,208.435462,178.133501,212.124831,181.67,216.76C178.96,215.87,176.35,215.06,173.76,214.39C171.238248,213.747763,168.68035,213.256887,166.1,212.92C163.643194,212.603275,161.166859,212.462916,158.69,212.5C156.284529,212.543011,153.885155,212.756882,151.51,213.14Z" transform="matrix(1 0 0 1 0.793009 0)" fill="rgb(239,198,0)" stroke="none" stroke-width="1"/><path id="ei8QmcfTPYW17" d="M23.81,307C26.19,306,28.6,305,31.01,304.05C32.23,303.58,33.43,303.05,34.66,302.63L38.38,301.35C40.87,300.52,43.38,299.62,45.88,298.88C48.38,298.14,50.98,297.41,53.54,296.68C64.010987,293.90176,74.688907,291.972176,85.47,290.91C96.512699,289.808694,107.640629,289.872378,118.67,291.1C120.06,291.23,121.43,291.48,122.81,291.67C124.19,291.86,125.58,292.03,126.93,292.33L131.03,293.14C132.39,293.41,133.73,293.78,135.08,294.09L137.08,294.58C137.75,294.76,138.41,294.96,139.08,295.15C140.4,295.54,141.74,295.89,143.08,296.32L146.97,297.64C148.26,298.1,149.51,298.64,150.78,299.09C155.78,301.09,160.6,303.27,165.19,305.55C169.78,307.83,174.29,310.08,178.76,312.24C183.23,314.4,187.76,316.33,192.34,318.01C201.67296,321.415674,211.515745,323.214493,221.45,323.33C226.528137,323.38572,231.603057,323.051404,236.63,322.33C241.681516,321.583729,246.676389,320.494546,251.58,319.07C256.478211,317.613545,261.292214,315.887582,266,313.9L267.25,315.51C262.842791,318.199161,258.232075,320.539626,253.46,322.51C243.365855,326.739031,232.626157,329.221064,221.7,329.85C220.3,329.95,218.9,329.93,217.49,329.96C216.08,329.99,214.67,330.03,213.26,329.96L209.02,329.75C207.62,329.63,206.22,329.43,204.81,329.28C199.267194,328.572886,193.798742,327.371433,188.47,325.69C183.346924,324.074372,178.318955,322.171356,173.41,319.99C168.6,317.9,163.98,315.69,159.41,313.58C154.84,311.47,150.31,309.47,145.73,307.71C136.440667,304.210068,126.770276,301.820162,116.92,300.59C106.785862,299.364595,96.568753,298.966612,86.37,299.4C75.99239,299.872402,65.64562,300.873702,55.37,302.4C45.01,303.89,34.74,305.97,24.26,307.89Z" fill="rgb(62,67,70)" stroke="none" stroke-width="1"/><g id="ei8QmcfTPYW18_tr" transform="translate(236.722535,165.047562) rotate(0)"><g id="ei8QmcfTPYW18_ts" transform="scale(0.2,0.2)"><g id="ei8QmcfTPYW18" transform="translate(-235.722534,-165.047561)"><path id="ei8QmcfTPYW19" d="M213.4,114.92C225.08,115.65,212.54,140.38,222.4,147.34C207.77,148.6,221.15,121.54,213.4,114.92Z" fill="rgb(239,198,0)" stroke="none" stroke-width="1"/><path id="ei8QmcfTPYW20" d="M214.44,162.45C220.97,195.88,271.34,162.94,241.02,145.05C242.86,128.44,261.8,132.26,268.2,121.11C269.3,133.53,247.02,130.5,245.06,144.11C250.43,150.03,256.06,153.46,256.75,160.97C259.56,190.97,213.24,194.11,214.44,162.47Z" fill="rgb(62,67,70)" stroke="none" stroke-width="1"/><path id="ei8QmcfTPYW21" d="M192,132.78C204,132.43,203.77,152.78,214.87,157.22C199.75,160.09,203.62,136.92,192,132.78Z" fill="rgb(34,74,149)" stroke="none" stroke-width="1"/><path id="ei8QmcfTPYW22" d="M229,146.62C258.93,140.74,242,189.26,220.6,166.96C234.7,177.81,252.45,149.57,229,146.62Z" fill="rgb(239,198,0)" stroke="none" stroke-width="1"/><path id="ei8QmcfTPYW23" d="M290.05,171.82C279.47,178.52,273.05,157.94,259.13,163.82C257.86,163.68,258.26,162.13,258.06,161.09C271.89,152.51,276.67,172.02,290.06,171.85Z" fill="rgb(239,198,0)" stroke="none" stroke-width="1"/><path id="ei8QmcfTPYW24" d="M212.67,167.57C209.93,176.81,191.67,164.46,188.41,158.82C185.53,156.63,177.72,159.74,183.41,155.74C194.84,158.14,201.49,168.74,212.67,167.57Z" fill="rgb(239,198,0)" stroke="none" stroke-width="1"/><path id="ei8QmcfTPYW25" d="M279.87,197.27C267.33,199.27,266.94,174.22,256.87,174.14C270.37,167.44,268.07,194.54,279.87,197.27Z" fill="rgb(34,74,149)" stroke="none" stroke-width="1"/><path id="ei8QmcfTPYW26" d="M215.78,177.07C217.45,177.69,217.63,179.55,219.47,180.07C214.81,192.17,191.81,178.64,185.96,186.32C184.71,175.63,213.87,188.81,215.78,177.11Z" fill="rgb(239,198,0)" stroke="none" stroke-width="1"/><path id="ei8QmcfTPYW27" d="M225.65,184.54C226.694426,185.508776,228.038889,186.091024,229.46,186.19C227,201.61,207.88,197,202.41,208.83C200.88,195.41,224.67,199.76,225.65,184.54Z" fill="rgb(34,74,149)" stroke="none" stroke-width="1"/><path id="ei8QmcfTPYW28" d="M242.75,110.94C246.93,115.51,232.52,130.09,231.99,142.94C223.26,128.91,242.21,123.47,242.75,110.94Z" fill="rgb(239,198,0)" stroke="none" stroke-width="1"/><path id="ei8QmcfTPYW29" d="M263.63,147L263.63,147C263.93873,147.022169,264.245913,147.062236,264.55,147.12C273.46,148.58,288.49,149.73,286.06,142.45C280.8,148.68,268.06,142.77,259.61,144.05L259.61,144.05L254.22,146.75C253.409323,147.703059,252.803426,148.812736,252.44,150.01C254.78,152.26,256.44,151.08,258.24,149.6Z" fill="rgb(239,198,0)" stroke="none" stroke-width="1"/><path id="ei8QmcfTPYW30" d="M223.48,164.58C227.48,163.08,233.33,163.82,232.14,156.12C231.92,154.12,227.14,150.01,225.83,152.93C234.88,142.33,240.23,172.54,223.48,164.58Z" fill="rgb(62,67,70)" stroke="none" stroke-width="1"/><path id="ei8QmcfTPYW31" d="M249.66,181.4C260.01,182.27,254.58,198.91,253.87,208.14C253.37,214.66,259.94,218.14,252.21,211.94C256.04,198.48,250.53,186.94,249.66,181.4Z" transform="matrix(1 0 0 1 0 2)" fill="rgb(239,198,0)" stroke="none" stroke-width="1"/><path id="ei8QmcfTPYW32" d="M238.62,187C245.12,199.77,230.71,210,229.17,219.11C229.08,219.68,226.8,214.68,227.02,213.65C228.02,208.76,240.56,196.15,238.62,187Z" fill="rgb(239,198,0)" stroke="none" stroke-width="1"/></g></g></g><g id="ei8QmcfTPYW33_tr" transform="translate(216.031382,297.5) rotate(-130)"><g id="ei8QmcfTPYW33" transform="translate(-215.89978,-297.499999)"><path id="ei8QmcfTPYW34" d="M216.74,317.28C216.01169,317.279723,215.28394,317.239663,214.56,317.16C208.697983,316.514055,203.377743,313.432961,199.9,308.67L199.9,308.67C196.409644,303.908473,195.084797,297.897662,196.25,292.11C197.387164,286.504517,200.831906,281.636868,205.74,278.7L375.82,177.46L378.3,180.85L230.23,312.19C226.503298,315.47296,221.706501,317.282871,216.74,317.28ZM203.1,306.28C205.915161,310.151371,210.231995,312.656514,214.99,313.18C219.567576,313.69765,224.149192,312.243169,227.59,309.18L360.93,190.94L207.77,282.11C203.80507,284.45482,201.029251,288.380256,200.14,292.9C199.205405,297.596204,200.294657,302.46879,203.14,306.32Z" fill="rgb(62,67,70)" stroke="none" stroke-width="1"/><path id="ei8QmcfTPYW35" d="M214.27,298.9C213.804333,298.279532,213.622397,297.491241,213.769042,296.729453C213.915686,295.967665,214.377267,295.303251,215.04,294.9L239.81,280.16L239.86,280.23L218.3,299.37C217.720458,299.870765,216.95721,300.105044,216.196522,300.015663C215.435834,299.926282,214.747681,299.521464,214.3,298.9Z" transform="matrix(1 0 0 1 -1.049496 0.032075)" fill="rgb(34,74,149)" stroke="none" stroke-width="1"/></g></g></svg>