{
    "asset" : {
        "generator" : "Khronos glTF Blender I/O v1.6.16",
        "version" : "2.0"
    },
    "scene" : 0,
    "scenes" : [
        {
            "name" : "Scene",
            "nodes" : [
                0,
                1,
                11
            ]
        }
    ],
    "nodes" : [
        {
            "name" : "Light",
            "rotation" : [
                0.16907575726509094,
                0.7558803558349609,
                -0.27217137813568115,
                0.570947527885437
            ],
            "translation" : [
                4.076245307922363,
                5.903861999511719,
                -1.0054539442062378
            ]
        },
        {
            "name" : "Camera",
            "rotation" : [
                0.483536034822464,
                0.33687159419059753,
                -0.20870360732078552,
                0.7804827094078064
            ],
            "translation" : [
                7.358891487121582,
                4.958309173583984,
                6.925790786743164
            ]
        },
        {
            "mesh" : 0,
            "name" : "Circle.001",
            "scale" : [
                0.3937007784843445,
                0.3937007784843445,
                0.3937007784843445
            ]
        },
        {
            "children" : [
                2
            ],
            "name" : "Circle"
        },
        {
            "children" : [
                3
            ],
            "name" : "Circle:1"
        },
        {
            "mesh" : 1,
            "name" : "Septagon.001",
            "scale" : [
                0.3937007784843445,
                0.3937007784843445,
                0.3937007784843445
            ]
        },
        {
            "children" : [
                5
            ],
            "name" : "Septagon"
        },
        {
            "children" : [
                6
            ],
            "name" : "Septagon:1"
        },
        {
            "mesh" : 2,
            "name" : "Square.001",
            "scale" : [
                0.3937007784843445,
                0.3937007784843445,
                0.3937007784843445
            ]
        },
        {
            "children" : [
                8
            ],
            "name" : "Square"
        },
        {
            "children" : [
                9
            ],
            "name" : "Square:1"
        },
        {
            "children" : [
                4,
                7,
                10
            ],
            "name" : "TestBBJs v2",
            "rotation" : [
                0.7071068286895752,
                0,
                0,
                0.7071067094802856
            ],
            "scale" : [
                0.02539999969303608,
                0.02539999969303608,
                0.02539999969303608
            ]
        }
    ],
    "materials" : [
        {
            "doubleSided" : true,
            "name" : "Steel - Satin",
            "pbrMetallicRoughness" : {
                "baseColorFactor" : [
                    0.6274510025978088,
                    0.6274510025978088,
                    0.6274510025978088,
                    1
                ],
                "roughnessFactor" : 0.5527864098548889
            }
        }
    ],
    "meshes" : [
        {
            "name" : "Circle",
            "primitives" : [
                {
                    "attributes" : {
                        "POSITION" : 0,
                        "NORMAL" : 1,
                        "TEXCOORD_0" : 2
                    },
                    "indices" : 3,
                    "material" : 0
                }
            ]
        },
        {
            "name" : "Septagon",
            "primitives" : [
                {
                    "attributes" : {
                        "POSITION" : 4,
                        "NORMAL" : 5,
                        "TEXCOORD_0" : 6
                    },
                    "indices" : 7,
                    "material" : 0
                }
            ]
        },
        {
            "name" : "Square",
            "primitives" : [
                {
                    "attributes" : {
                        "POSITION" : 8,
                        "NORMAL" : 9,
                        "TEXCOORD_0" : 10
                    },
                    "indices" : 11,
                    "material" : 0
                }
            ]
        }
    ],
    "accessors" : [
        {
            "bufferView" : 0,
            "componentType" : 5126,
            "count" : 189,
            "max" : [
                1.5310231447219849,
                9.06275749206543,
                0
            ],
            "min" : [
                -8.96999740600586,
                -1.4416509866714478,
                -2.5399999618530273
            ],
            "type" : "VEC3"
        },
        {
            "bufferView" : 1,
            "componentType" : 5126,
            "count" : 189,
            "type" : "VEC3"
        },
        {
            "bufferView" : 2,
            "componentType" : 5126,
            "count" : 189,
            "type" : "VEC2"
        },
        {
            "bufferView" : 3,
            "componentType" : 5123,
            "count" : 678,
            "type" : "SCALAR"
        },
        {
            "bufferView" : 4,
            "componentType" : 5126,
            "count" : 56,
            "max" : [
                9.814379692077637,
                1.401424765586853,
                0
            ],
            "min" : [
                -0.856469452381134,
                -10.583763122558594,
                -6.349999904632568
            ],
            "type" : "VEC3"
        },
        {
            "bufferView" : 5,
            "componentType" : 5126,
            "count" : 56,
            "type" : "VEC3"
        },
        {
            "bufferView" : 6,
            "componentType" : 5126,
            "count" : 56,
            "type" : "VEC2"
        },
        {
            "bufferView" : 7,
            "componentType" : 5123,
            "count" : 132,
            "type" : "SCALAR"
        },
        {
            "bufferView" : 8,
            "componentType" : 5126,
            "count" : 30,
            "max" : [
                4.478954792022705,
                4.591169357299805,
                0
            ],
            "min" : [
                -4.478954792022705,
                -4.591169357299805,
                -10.15999984741211
            ],
            "type" : "VEC3"
        },
        {
            "bufferView" : 9,
            "componentType" : 5126,
            "count" : 30,
            "type" : "VEC3"
        },
        {
            "bufferView" : 10,
            "componentType" : 5126,
            "count" : 30,
            "type" : "VEC2"
        },
        {
            "bufferView" : 11,
            "componentType" : 5123,
            "count" : 72,
            "type" : "SCALAR"
        }
    ],
    "bufferViews" : [
        {
            "buffer" : 0,
            "byteLength" : 2268,
            "byteOffset" : 0
        },
        {
            "buffer" : 0,
            "byteLength" : 2268,
            "byteOffset" : 2268
        },
        {
            "buffer" : 0,
            "byteLength" : 1512,
            "byteOffset" : 4536
        },
        {
            "buffer" : 0,
            "byteLength" : 1356,
            "byteOffset" : 6048
        },
        {
            "buffer" : 0,
            "byteLength" : 672,
            "byteOffset" : 7404
        },
        {
            "buffer" : 0,
            "byteLength" : 672,
            "byteOffset" : 8076
        },
        {
            "buffer" : 0,
            "byteLength" : 448,
            "byteOffset" : 8748
        },
        {
            "buffer" : 0,
            "byteLength" : 264,
            "byteOffset" : 9196
        },
        {
            "buffer" : 0,
            "byteLength" : 360,
            "byteOffset" : 9460
        },
        {
            "buffer" : 0,
            "byteLength" : 360,
            "byteOffset" : 9820
        },
        {
            "buffer" : 0,
            "byteLength" : 240,
            "byteOffset" : 10180
        },
        {
            "buffer" : 0,
            "byteLength" : 144,
            "byteOffset" : 10420
        }
    ],
    "buffers" : [
        {
            "byteLength" : 10564,
            "uri" : "scene.bin"
        }
    ]
}
